<?xml version="1.0" encoding="utf-8" standalone="no"?>
<!DOCTYPE svg PUBLIC "-//W3C//DTD SVG 1.1//EN"
  "http://www.w3.org/Graphics/SVG/1.1/DTD/svg11.dtd">
<svg xmlns:xlink="http://www.w3.org/1999/xlink" width="1152pt" height="720pt" viewBox="0 0 1152 720" xmlns="http://www.w3.org/2000/svg" version="1.1">
 <metadata>
  <rdf:RDF xmlns:dc="http://purl.org/dc/elements/1.1/" xmlns:cc="http://creativecommons.org/ns#" xmlns:rdf="http://www.w3.org/1999/02/22-rdf-syntax-ns#">
   <cc:Work>
    <dc:type rdf:resource="http://purl.org/dc/dcmitype/StillImage"/>
    <dc:date>2024-03-01T07:19:27.604247</dc:date>
    <dc:format>image/svg+xml</dc:format>
    <dc:creator>
     <cc:Agent>
      <dc:title>Matplotlib v3.8.2, https://matplotlib.org/</dc:title>
     </cc:Agent>
    </dc:creator>
   </cc:Work>
  </rdf:RDF>
 </metadata>
 <defs>
  <style type="text/css">*{stroke-linejoin: round; stroke-linecap: butt}</style>
 </defs>
 <g id="figure_1">
  <g id="patch_1">
   <path d="M 0 720 
L 1152 720 
L 1152 0 
L 0 0 
z
" style="fill: #ffffff"/>
  </g>
  <g id="axes_1">
   <g id="patch_2">
    <path d="M 79.66 643.94 
L 1139.04 643.94 
L 1139.04 12.96 
L 79.66 12.96 
z
" style="fill: #ffffff"/>
   </g>
   <g id="matplotlib.axis_1">
    <g id="xtick_1">
     <g id="text_1">
      <!-- 100 -->
      <g style="fill: #262626" transform="translate(151.258854 677.755625) scale(0.2 -0.2)">
       <defs>
        <path id="ArialMT-31" d="M 2384 0 
L 1822 0 
L 1822 3584 
Q 1619 3391 1289 3197 
Q 959 3003 697 2906 
L 697 3450 
Q 1169 3672 1522 3987 
Q 1875 4303 2022 4600 
L 2384 4600 
L 2384 0 
z
" transform="scale(0.015625)"/>
        <path id="ArialMT-30" d="M 266 2259 
Q 266 3072 433 3567 
Q 600 4063 929 4331 
Q 1259 4600 1759 4600 
Q 2128 4600 2406 4451 
Q 2684 4303 2865 4023 
Q 3047 3744 3150 3342 
Q 3253 2941 3253 2259 
Q 3253 1453 3087 958 
Q 2922 463 2592 192 
Q 2263 -78 1759 -78 
Q 1097 -78 719 397 
Q 266 969 266 2259 
z
M 844 2259 
Q 844 1131 1108 757 
Q 1372 384 1759 384 
Q 2147 384 2411 759 
Q 2675 1134 2675 2259 
Q 2675 3391 2411 3762 
Q 2147 4134 1753 4134 
Q 1366 4134 1134 3806 
Q 844 3388 844 2259 
z
" transform="scale(0.015625)"/>
       </defs>
       <use xlink:href="#ArialMT-31"/>
       <use xlink:href="#ArialMT-30" x="55.615234"/>
       <use xlink:href="#ArialMT-30" x="111.230469"/>
      </g>
     </g>
    </g>
    <g id="xtick_2">
     <g id="text_2">
      <!-- 200 -->
      <g style="fill: #262626" transform="translate(327.822187 677.755625) scale(0.2 -0.2)">
       <defs>
        <path id="ArialMT-32" d="M 3222 541 
L 3222 0 
L 194 0 
Q 188 203 259 391 
Q 375 700 629 1000 
Q 884 1300 1366 1694 
Q 2113 2306 2375 2664 
Q 2638 3022 2638 3341 
Q 2638 3675 2398 3904 
Q 2159 4134 1775 4134 
Q 1369 4134 1125 3890 
Q 881 3647 878 3216 
L 300 3275 
Q 359 3922 746 4261 
Q 1134 4600 1788 4600 
Q 2447 4600 2831 4234 
Q 3216 3869 3216 3328 
Q 3216 3053 3103 2787 
Q 2991 2522 2730 2228 
Q 2469 1934 1863 1422 
Q 1356 997 1212 845 
Q 1069 694 975 541 
L 3222 541 
z
" transform="scale(0.015625)"/>
       </defs>
       <use xlink:href="#ArialMT-32"/>
       <use xlink:href="#ArialMT-30" x="55.615234"/>
       <use xlink:href="#ArialMT-30" x="111.230469"/>
      </g>
     </g>
    </g>
    <g id="xtick_3">
     <g id="text_3">
      <!-- 300 -->
      <g style="fill: #262626" transform="translate(504.385521 677.755625) scale(0.2 -0.2)">
       <defs>
        <path id="ArialMT-33" d="M 269 1209 
L 831 1284 
Q 928 806 1161 595 
Q 1394 384 1728 384 
Q 2125 384 2398 659 
Q 2672 934 2672 1341 
Q 2672 1728 2419 1979 
Q 2166 2231 1775 2231 
Q 1616 2231 1378 2169 
L 1441 2663 
Q 1497 2656 1531 2656 
Q 1891 2656 2178 2843 
Q 2466 3031 2466 3422 
Q 2466 3731 2256 3934 
Q 2047 4138 1716 4138 
Q 1388 4138 1169 3931 
Q 950 3725 888 3313 
L 325 3413 
Q 428 3978 793 4289 
Q 1159 4600 1703 4600 
Q 2078 4600 2393 4439 
Q 2709 4278 2876 4000 
Q 3044 3722 3044 3409 
Q 3044 3113 2884 2869 
Q 2725 2625 2413 2481 
Q 2819 2388 3044 2092 
Q 3269 1797 3269 1353 
Q 3269 753 2831 336 
Q 2394 -81 1725 -81 
Q 1122 -81 723 278 
Q 325 638 269 1209 
z
" transform="scale(0.015625)"/>
       </defs>
       <use xlink:href="#ArialMT-33"/>
       <use xlink:href="#ArialMT-30" x="55.615234"/>
       <use xlink:href="#ArialMT-30" x="111.230469"/>
      </g>
     </g>
    </g>
    <g id="xtick_4">
     <g id="text_4">
      <!-- 400 -->
      <g style="fill: #262626" transform="translate(680.948854 677.755625) scale(0.2 -0.2)">
       <defs>
        <path id="ArialMT-34" d="M 2069 0 
L 2069 1097 
L 81 1097 
L 81 1613 
L 2172 4581 
L 2631 4581 
L 2631 1613 
L 3250 1613 
L 3250 1097 
L 2631 1097 
L 2631 0 
L 2069 0 
z
M 2069 1613 
L 2069 3678 
L 634 1613 
L 2069 1613 
z
" transform="scale(0.015625)"/>
       </defs>
       <use xlink:href="#ArialMT-34"/>
       <use xlink:href="#ArialMT-30" x="55.615234"/>
       <use xlink:href="#ArialMT-30" x="111.230469"/>
      </g>
     </g>
    </g>
    <g id="xtick_5">
     <g id="text_5">
      <!-- 500 -->
      <g style="fill: #262626" transform="translate(857.512187 677.755625) scale(0.2 -0.2)">
       <defs>
        <path id="ArialMT-35" d="M 266 1200 
L 856 1250 
Q 922 819 1161 601 
Q 1400 384 1738 384 
Q 2144 384 2425 690 
Q 2706 997 2706 1503 
Q 2706 1984 2436 2262 
Q 2166 2541 1728 2541 
Q 1456 2541 1237 2417 
Q 1019 2294 894 2097 
L 366 2166 
L 809 4519 
L 3088 4519 
L 3088 3981 
L 1259 3981 
L 1013 2750 
Q 1425 3038 1878 3038 
Q 2478 3038 2890 2622 
Q 3303 2206 3303 1553 
Q 3303 931 2941 478 
Q 2500 -78 1738 -78 
Q 1113 -78 717 272 
Q 322 622 266 1200 
z
" transform="scale(0.015625)"/>
       </defs>
       <use xlink:href="#ArialMT-35"/>
       <use xlink:href="#ArialMT-30" x="55.615234"/>
       <use xlink:href="#ArialMT-30" x="111.230469"/>
      </g>
     </g>
    </g>
    <g id="xtick_6">
     <g id="text_6">
      <!-- 600 -->
      <g style="fill: #262626" transform="translate(1034.075521 677.755625) scale(0.2 -0.2)">
       <defs>
        <path id="ArialMT-36" d="M 3184 3459 
L 2625 3416 
Q 2550 3747 2413 3897 
Q 2184 4138 1850 4138 
Q 1581 4138 1378 3988 
Q 1113 3794 959 3422 
Q 806 3050 800 2363 
Q 1003 2672 1297 2822 
Q 1591 2972 1913 2972 
Q 2475 2972 2870 2558 
Q 3266 2144 3266 1488 
Q 3266 1056 3080 686 
Q 2894 316 2569 119 
Q 2244 -78 1831 -78 
Q 1128 -78 684 439 
Q 241 956 241 2144 
Q 241 3472 731 4075 
Q 1159 4600 1884 4600 
Q 2425 4600 2770 4297 
Q 3116 3994 3184 3459 
z
M 888 1484 
Q 888 1194 1011 928 
Q 1134 663 1356 523 
Q 1578 384 1822 384 
Q 2178 384 2434 671 
Q 2691 959 2691 1453 
Q 2691 1928 2437 2201 
Q 2184 2475 1800 2475 
Q 1419 2475 1153 2201 
Q 888 1928 888 1484 
z
" transform="scale(0.015625)"/>
       </defs>
       <use xlink:href="#ArialMT-36"/>
       <use xlink:href="#ArialMT-30" x="55.615234"/>
       <use xlink:href="#ArialMT-30" x="111.230469"/>
      </g>
     </g>
    </g>
    <g id="text_7">
     <!-- Epochs -->
     <g style="fill: #262626" transform="translate(572.661562 701.477813) scale(0.22 -0.22)">
      <defs>
       <path id="ArialMT-45" d="M 506 0 
L 506 4581 
L 3819 4581 
L 3819 4041 
L 1113 4041 
L 1113 2638 
L 3647 2638 
L 3647 2100 
L 1113 2100 
L 1113 541 
L 3925 541 
L 3925 0 
L 506 0 
z
" transform="scale(0.015625)"/>
       <path id="ArialMT-70" d="M 422 -1272 
L 422 3319 
L 934 3319 
L 934 2888 
Q 1116 3141 1344 3267 
Q 1572 3394 1897 3394 
Q 2322 3394 2647 3175 
Q 2972 2956 3137 2557 
Q 3303 2159 3303 1684 
Q 3303 1175 3120 767 
Q 2938 359 2589 142 
Q 2241 -75 1856 -75 
Q 1575 -75 1351 44 
Q 1128 163 984 344 
L 984 -1272 
L 422 -1272 
z
M 931 1641 
Q 931 1000 1190 694 
Q 1450 388 1819 388 
Q 2194 388 2461 705 
Q 2728 1022 2728 1688 
Q 2728 2322 2467 2637 
Q 2206 2953 1844 2953 
Q 1484 2953 1207 2617 
Q 931 2281 931 1641 
z
" transform="scale(0.015625)"/>
       <path id="ArialMT-6f" d="M 213 1659 
Q 213 2581 725 3025 
Q 1153 3394 1769 3394 
Q 2453 3394 2887 2945 
Q 3322 2497 3322 1706 
Q 3322 1066 3130 698 
Q 2938 331 2570 128 
Q 2203 -75 1769 -75 
Q 1072 -75 642 372 
Q 213 819 213 1659 
z
M 791 1659 
Q 791 1022 1069 705 
Q 1347 388 1769 388 
Q 2188 388 2466 706 
Q 2744 1025 2744 1678 
Q 2744 2294 2464 2611 
Q 2184 2928 1769 2928 
Q 1347 2928 1069 2612 
Q 791 2297 791 1659 
z
" transform="scale(0.015625)"/>
       <path id="ArialMT-63" d="M 2588 1216 
L 3141 1144 
Q 3050 572 2676 248 
Q 2303 -75 1759 -75 
Q 1078 -75 664 370 
Q 250 816 250 1647 
Q 250 2184 428 2587 
Q 606 2991 970 3192 
Q 1334 3394 1763 3394 
Q 2303 3394 2647 3120 
Q 2991 2847 3088 2344 
L 2541 2259 
Q 2463 2594 2264 2762 
Q 2066 2931 1784 2931 
Q 1359 2931 1093 2626 
Q 828 2322 828 1663 
Q 828 994 1084 691 
Q 1341 388 1753 388 
Q 2084 388 2306 591 
Q 2528 794 2588 1216 
z
" transform="scale(0.015625)"/>
       <path id="ArialMT-68" d="M 422 0 
L 422 4581 
L 984 4581 
L 984 2938 
Q 1378 3394 1978 3394 
Q 2347 3394 2619 3248 
Q 2891 3103 3008 2847 
Q 3125 2591 3125 2103 
L 3125 0 
L 2563 0 
L 2563 2103 
Q 2563 2525 2380 2717 
Q 2197 2909 1863 2909 
Q 1613 2909 1392 2779 
Q 1172 2650 1078 2428 
Q 984 2206 984 1816 
L 984 0 
L 422 0 
z
" transform="scale(0.015625)"/>
       <path id="ArialMT-73" d="M 197 991 
L 753 1078 
Q 800 744 1014 566 
Q 1228 388 1613 388 
Q 2000 388 2187 545 
Q 2375 703 2375 916 
Q 2375 1106 2209 1216 
Q 2094 1291 1634 1406 
Q 1016 1563 777 1677 
Q 538 1791 414 1992 
Q 291 2194 291 2438 
Q 291 2659 392 2848 
Q 494 3038 669 3163 
Q 800 3259 1026 3326 
Q 1253 3394 1513 3394 
Q 1903 3394 2198 3281 
Q 2494 3169 2634 2976 
Q 2775 2784 2828 2463 
L 2278 2388 
Q 2241 2644 2061 2787 
Q 1881 2931 1553 2931 
Q 1166 2931 1000 2803 
Q 834 2675 834 2503 
Q 834 2394 903 2306 
Q 972 2216 1119 2156 
Q 1203 2125 1616 2013 
Q 2213 1853 2448 1751 
Q 2684 1650 2818 1456 
Q 2953 1263 2953 975 
Q 2953 694 2789 445 
Q 2625 197 2315 61 
Q 2006 -75 1616 -75 
Q 969 -75 630 194 
Q 291 463 197 991 
z
" transform="scale(0.015625)"/>
      </defs>
      <use xlink:href="#ArialMT-45"/>
      <use xlink:href="#ArialMT-70" x="66.699219"/>
      <use xlink:href="#ArialMT-6f" x="122.314453"/>
      <use xlink:href="#ArialMT-63" x="177.929688"/>
      <use xlink:href="#ArialMT-68" x="227.929688"/>
      <use xlink:href="#ArialMT-73" x="283.544922"/>
     </g>
    </g>
   </g>
   <g id="matplotlib.axis_2">
    <g id="ytick_1">
     <g id="line2d_1">
      <path d="M 79.66 643.94 
L 1139.04 643.94 
" clip-path="url(#p07a853e561)" style="fill: none; stroke: #cccccc; stroke-linecap: round"/>
     </g>
     <g id="text_8">
      <!-- 85 -->
      <g style="fill: #262626" transform="translate(37.91625 651.097812) scale(0.2 -0.2)">
       <defs>
        <path id="ArialMT-38" d="M 1131 2484 
Q 781 2613 612 2850 
Q 444 3088 444 3419 
Q 444 3919 803 4259 
Q 1163 4600 1759 4600 
Q 2359 4600 2725 4251 
Q 3091 3903 3091 3403 
Q 3091 3084 2923 2848 
Q 2756 2613 2416 2484 
Q 2838 2347 3058 2040 
Q 3278 1734 3278 1309 
Q 3278 722 2862 322 
Q 2447 -78 1769 -78 
Q 1091 -78 675 323 
Q 259 725 259 1325 
Q 259 1772 486 2073 
Q 713 2375 1131 2484 
z
M 1019 3438 
Q 1019 3113 1228 2906 
Q 1438 2700 1772 2700 
Q 2097 2700 2305 2904 
Q 2513 3109 2513 3406 
Q 2513 3716 2298 3927 
Q 2084 4138 1766 4138 
Q 1444 4138 1231 3931 
Q 1019 3725 1019 3438 
z
M 838 1322 
Q 838 1081 952 856 
Q 1066 631 1291 507 
Q 1516 384 1775 384 
Q 2178 384 2440 643 
Q 2703 903 2703 1303 
Q 2703 1709 2433 1975 
Q 2163 2241 1756 2241 
Q 1359 2241 1098 1978 
Q 838 1716 838 1322 
z
" transform="scale(0.015625)"/>
       </defs>
       <use xlink:href="#ArialMT-38"/>
       <use xlink:href="#ArialMT-35" x="55.615234"/>
      </g>
     </g>
    </g>
    <g id="ytick_2">
     <g id="line2d_2">
      <path d="M 79.66 546.866154 
L 1139.04 546.866154 
" clip-path="url(#p07a853e561)" style="fill: none; stroke: #cccccc; stroke-linecap: round"/>
     </g>
     <g id="text_9">
      <!-- 86 -->
      <g style="fill: #262626" transform="translate(37.91625 554.023966) scale(0.2 -0.2)">
       <use xlink:href="#ArialMT-38"/>
       <use xlink:href="#ArialMT-36" x="55.615234"/>
      </g>
     </g>
    </g>
    <g id="ytick_3">
     <g id="line2d_3">
      <path d="M 79.66 449.792308 
L 1139.04 449.792308 
" clip-path="url(#p07a853e561)" style="fill: none; stroke: #cccccc; stroke-linecap: round"/>
     </g>
     <g id="text_10">
      <!-- 87 -->
      <g style="fill: #262626" transform="translate(37.91625 456.95012) scale(0.2 -0.2)">
       <defs>
        <path id="ArialMT-37" d="M 303 3981 
L 303 4522 
L 3269 4522 
L 3269 4084 
Q 2831 3619 2401 2847 
Q 1972 2075 1738 1259 
Q 1569 684 1522 0 
L 944 0 
Q 953 541 1156 1306 
Q 1359 2072 1739 2783 
Q 2119 3494 2547 3981 
L 303 3981 
z
" transform="scale(0.015625)"/>
       </defs>
       <use xlink:href="#ArialMT-38"/>
       <use xlink:href="#ArialMT-37" x="55.615234"/>
      </g>
     </g>
    </g>
    <g id="ytick_4">
     <g id="line2d_4">
      <path d="M 79.66 352.718462 
L 1139.04 352.718462 
" clip-path="url(#p07a853e561)" style="fill: none; stroke: #cccccc; stroke-linecap: round"/>
     </g>
     <g id="text_11">
      <!-- 88 -->
      <g style="fill: #262626" transform="translate(37.91625 359.876274) scale(0.2 -0.2)">
       <use xlink:href="#ArialMT-38"/>
       <use xlink:href="#ArialMT-38" x="55.615234"/>
      </g>
     </g>
    </g>
    <g id="ytick_5">
     <g id="line2d_5">
      <path d="M 79.66 255.644615 
L 1139.04 255.644615 
" clip-path="url(#p07a853e561)" style="fill: none; stroke: #cccccc; stroke-linecap: round"/>
     </g>
     <g id="text_12">
      <!-- 89 -->
      <g style="fill: #262626" transform="translate(37.91625 262.802428) scale(0.2 -0.2)">
       <defs>
        <path id="ArialMT-39" d="M 350 1059 
L 891 1109 
Q 959 728 1153 556 
Q 1347 384 1650 384 
Q 1909 384 2104 503 
Q 2300 622 2425 820 
Q 2550 1019 2634 1356 
Q 2719 1694 2719 2044 
Q 2719 2081 2716 2156 
Q 2547 1888 2255 1720 
Q 1963 1553 1622 1553 
Q 1053 1553 659 1965 
Q 266 2378 266 3053 
Q 266 3750 677 4175 
Q 1088 4600 1706 4600 
Q 2153 4600 2523 4359 
Q 2894 4119 3086 3673 
Q 3278 3228 3278 2384 
Q 3278 1506 3087 986 
Q 2897 466 2520 194 
Q 2144 -78 1638 -78 
Q 1100 -78 759 220 
Q 419 519 350 1059 
z
M 2653 3081 
Q 2653 3566 2395 3850 
Q 2138 4134 1775 4134 
Q 1400 4134 1122 3828 
Q 844 3522 844 3034 
Q 844 2597 1108 2323 
Q 1372 2050 1759 2050 
Q 2150 2050 2401 2323 
Q 2653 2597 2653 3081 
z
" transform="scale(0.015625)"/>
       </defs>
       <use xlink:href="#ArialMT-38"/>
       <use xlink:href="#ArialMT-39" x="55.615234"/>
      </g>
     </g>
    </g>
    <g id="ytick_6">
     <g id="line2d_6">
      <path d="M 79.66 158.570769 
L 1139.04 158.570769 
" clip-path="url(#p07a853e561)" style="fill: none; stroke: #cccccc; stroke-linecap: round"/>
     </g>
     <g id="text_13">
      <!-- 90 -->
      <g style="fill: #262626" transform="translate(37.91625 165.728582) scale(0.2 -0.2)">
       <use xlink:href="#ArialMT-39"/>
       <use xlink:href="#ArialMT-30" x="55.615234"/>
      </g>
     </g>
    </g>
    <g id="ytick_7">
     <g id="line2d_7">
      <path d="M 79.66 61.496923 
L 1139.04 61.496923 
" clip-path="url(#p07a853e561)" style="fill: none; stroke: #cccccc; stroke-linecap: round"/>
     </g>
     <g id="text_14">
      <!-- 91 -->
      <g style="fill: #262626" transform="translate(37.91625 68.654736) scale(0.2 -0.2)">
       <use xlink:href="#ArialMT-39"/>
       <use xlink:href="#ArialMT-31" x="55.615234"/>
      </g>
     </g>
    </g>
    <g id="text_15">
     <!-- Score -->
     <g style="fill: #262626" transform="translate(29.54375 357.184063) rotate(-90) scale(0.22 -0.22)">
      <defs>
       <path id="ArialMT-53" d="M 288 1472 
L 859 1522 
Q 900 1178 1048 958 
Q 1197 738 1509 602 
Q 1822 466 2213 466 
Q 2559 466 2825 569 
Q 3091 672 3220 851 
Q 3350 1031 3350 1244 
Q 3350 1459 3225 1620 
Q 3100 1781 2813 1891 
Q 2628 1963 1997 2114 
Q 1366 2266 1113 2400 
Q 784 2572 623 2826 
Q 463 3081 463 3397 
Q 463 3744 659 4045 
Q 856 4347 1234 4503 
Q 1613 4659 2075 4659 
Q 2584 4659 2973 4495 
Q 3363 4331 3572 4012 
Q 3781 3694 3797 3291 
L 3216 3247 
Q 3169 3681 2898 3903 
Q 2628 4125 2100 4125 
Q 1550 4125 1298 3923 
Q 1047 3722 1047 3438 
Q 1047 3191 1225 3031 
Q 1400 2872 2139 2705 
Q 2878 2538 3153 2413 
Q 3553 2228 3743 1945 
Q 3934 1663 3934 1294 
Q 3934 928 3725 604 
Q 3516 281 3123 101 
Q 2731 -78 2241 -78 
Q 1619 -78 1198 103 
Q 778 284 539 648 
Q 300 1013 288 1472 
z
" transform="scale(0.015625)"/>
       <path id="ArialMT-72" d="M 416 0 
L 416 3319 
L 922 3319 
L 922 2816 
Q 1116 3169 1280 3281 
Q 1444 3394 1641 3394 
Q 1925 3394 2219 3213 
L 2025 2691 
Q 1819 2813 1613 2813 
Q 1428 2813 1281 2702 
Q 1134 2591 1072 2394 
Q 978 2094 978 1738 
L 978 0 
L 416 0 
z
" transform="scale(0.015625)"/>
       <path id="ArialMT-65" d="M 2694 1069 
L 3275 997 
Q 3138 488 2766 206 
Q 2394 -75 1816 -75 
Q 1088 -75 661 373 
Q 234 822 234 1631 
Q 234 2469 665 2931 
Q 1097 3394 1784 3394 
Q 2450 3394 2872 2941 
Q 3294 2488 3294 1666 
Q 3294 1616 3291 1516 
L 816 1516 
Q 847 969 1125 678 
Q 1403 388 1819 388 
Q 2128 388 2347 550 
Q 2566 713 2694 1069 
z
M 847 1978 
L 2700 1978 
Q 2663 2397 2488 2606 
Q 2219 2931 1791 2931 
Q 1403 2931 1139 2672 
Q 875 2413 847 1978 
z
" transform="scale(0.015625)"/>
      </defs>
      <use xlink:href="#ArialMT-53"/>
      <use xlink:href="#ArialMT-63" x="66.699219"/>
      <use xlink:href="#ArialMT-6f" x="116.699219"/>
      <use xlink:href="#ArialMT-72" x="172.314453"/>
      <use xlink:href="#ArialMT-65" x="205.615234"/>
     </g>
    </g>
   </g>
   <g id="patch_3">
    <path d="M 97.316333 8895.216923 
L 167.941667 8895.216923 
L 167.941667 286.571989 
L 97.316333 286.571989 
z
" clip-path="url(#p07a853e561)" style="fill: #58a141; stroke: #ffffff; stroke-linejoin: miter"/>
   </g>
   <g id="patch_4">
    <path d="M 273.879667 8895.216923 
L 344.505 8895.216923 
L 344.505 318.052667 
L 273.879667 318.052667 
z
" clip-path="url(#p07a853e561)" style="fill: #58a141; stroke: #ffffff; stroke-linejoin: miter"/>
   </g>
   <g id="patch_5">
    <path d="M 450.443 8895.216923 
L 521.068333 8895.216923 
L 521.068333 383.76232 
L 450.443 383.76232 
z
" clip-path="url(#p07a853e561)" style="fill: #58a141; stroke: #ffffff; stroke-linejoin: miter"/>
   </g>
   <g id="patch_6">
    <path d="M 627.006333 8895.216923 
L 697.631667 8895.216923 
L 697.631667 432.728846 
L 627.006333 432.728846 
z
" clip-path="url(#p07a853e561)" style="fill: #58a141; stroke: #ffffff; stroke-linejoin: miter"/>
   </g>
   <g id="patch_7">
    <path d="M 803.569667 8895.216923 
L 874.195 8895.216923 
L 874.195 427.193385 
L 803.569667 427.193385 
z
" clip-path="url(#p07a853e561)" style="fill: #58a141; stroke: #ffffff; stroke-linejoin: miter"/>
   </g>
   <g id="patch_8">
    <path d="M 980.133 8895.216923 
L 1050.758333 8895.216923 
L 1050.758333 444.360291 
L 980.133 444.360291 
z
" clip-path="url(#p07a853e561)" style="fill: #58a141; stroke: #ffffff; stroke-linejoin: miter"/>
   </g>
   <g id="patch_9">
    <path d="M 167.941667 8895.216923 
L 238.567 8895.216923 
L 238.567 225.116584 
L 167.941667 225.116584 
z
" clip-path="url(#p07a853e561)" style="fill: #459e97; stroke: #ffffff; stroke-linejoin: miter"/>
   </g>
   <g id="patch_10">
    <path d="M 344.505 8895.216923 
L 415.130333 8895.216923 
L 415.130333 226.329045 
L 344.505 226.329045 
z
" clip-path="url(#p07a853e561)" style="fill: #459e97; stroke: #ffffff; stroke-linejoin: miter"/>
   </g>
   <g id="patch_11">
    <path d="M 521.068333 8895.216923 
L 591.693667 8895.216923 
L 591.693667 213.244572 
L 521.068333 213.244572 
z
" clip-path="url(#p07a853e561)" style="fill: #459e97; stroke: #ffffff; stroke-linejoin: miter"/>
   </g>
   <g id="patch_12">
    <path d="M 697.631667 8895.216923 
L 768.257 8895.216923 
L 768.257 205.849524 
L 697.631667 205.849524 
z
" clip-path="url(#p07a853e561)" style="fill: #459e97; stroke: #ffffff; stroke-linejoin: miter"/>
   </g>
   <g id="patch_13">
    <path d="M 874.195 8895.216923 
L 944.820333 8895.216923 
L 944.820333 196.999041 
L 874.195 196.999041 
z
" clip-path="url(#p07a853e561)" style="fill: #459e97; stroke: #ffffff; stroke-linejoin: miter"/>
   </g>
   <g id="patch_14">
    <path d="M 1050.758333 8895.216923 
L 1121.383667 8895.216923 
L 1121.383667 180.54181 
L 1050.758333 180.54181 
z
" clip-path="url(#p07a853e561)" style="fill: #459e97; stroke: #ffffff; stroke-linejoin: miter"/>
   </g>
   <g id="patch_15">
    <path d="M 167.941667 8895.216923 
L 167.941667 8895.216923 
L 167.941667 8895.216923 
L 167.941667 8895.216923 
z
" clip-path="url(#p07a853e561)" style="fill: #58a141; stroke: #ffffff; stroke-linejoin: miter"/>
   </g>
   <g id="patch_16">
    <path d="M 167.941667 8895.216923 
L 167.941667 8895.216923 
L 167.941667 8895.216923 
L 167.941667 8895.216923 
z
" clip-path="url(#p07a853e561)" style="fill: #459e97; stroke: #ffffff; stroke-linejoin: miter"/>
   </g>
   <g id="line2d_8">
    <path d="M 132.629 315.844497 
L 132.629 256.76115 
" clip-path="url(#p07a853e561)" style="fill: none; stroke: #424242; stroke-width: 2.25; stroke-linecap: round"/>
   </g>
   <g id="line2d_9">
    <path d="M 309.192333 342.611314 
L 309.192333 295.685953 
" clip-path="url(#p07a853e561)" style="fill: none; stroke: #424242; stroke-width: 2.25; stroke-linecap: round"/>
   </g>
   <g id="line2d_10">
    <path d="M 485.755667 419.858289 
L 485.755667 346.539925 
" clip-path="url(#p07a853e561)" style="fill: none; stroke: #424242; stroke-width: 2.25; stroke-linecap: round"/>
   </g>
   <g id="line2d_11">
    <path d="M 662.319 474.338264 
L 662.319 392.848027 
" clip-path="url(#p07a853e561)" style="fill: none; stroke: #424242; stroke-width: 2.25; stroke-linecap: round"/>
   </g>
   <g id="line2d_12">
    <path d="M 838.882333 468.840271 
L 838.882333 388.757055 
" clip-path="url(#p07a853e561)" style="fill: none; stroke: #424242; stroke-width: 2.25; stroke-linecap: round"/>
   </g>
   <g id="line2d_13">
    <path d="M 1015.445667 481.522455 
L 1015.445667 409.935485 
" clip-path="url(#p07a853e561)" style="fill: none; stroke: #424242; stroke-width: 2.25; stroke-linecap: round"/>
   </g>
   <g id="line2d_14">
    <path d="M 203.254333 246.390881 
L 203.254333 204.920331 
" clip-path="url(#p07a853e561)" style="fill: none; stroke: #424242; stroke-width: 2.25; stroke-linecap: round"/>
   </g>
   <g id="line2d_15">
    <path d="M 379.817667 240.532518 
L 379.817667 212.705581 
" clip-path="url(#p07a853e561)" style="fill: none; stroke: #424242; stroke-width: 2.25; stroke-linecap: round"/>
   </g>
   <g id="line2d_16">
    <path d="M 556.381 228.029016 
L 556.381 200.040898 
" clip-path="url(#p07a853e561)" style="fill: none; stroke: #424242; stroke-width: 2.25; stroke-linecap: round"/>
   </g>
   <g id="line2d_17">
    <path d="M 732.944333 222.047423 
L 732.944333 189.802942 
" clip-path="url(#p07a853e561)" style="fill: none; stroke: #424242; stroke-width: 2.25; stroke-linecap: round"/>
   </g>
   <g id="line2d_18">
    <path d="M 909.507667 215.143914 
L 909.507667 181.060774 
" clip-path="url(#p07a853e561)" style="fill: none; stroke: #424242; stroke-width: 2.25; stroke-linecap: round"/>
   </g>
   <g id="line2d_19">
    <path d="M 1086.071 194.348347 
L 1086.071 165.341304 
" clip-path="url(#p07a853e561)" style="fill: none; stroke: #424242; stroke-width: 2.25; stroke-linecap: round"/>
   </g>
   <g id="line2d_20">
    <path d="M 79.66 586.666431 
L 1139.04 586.666431 
" clip-path="url(#p07a853e561)" style="fill: none; stroke: #ff0000; stroke-width: 1.5; stroke-linecap: round"/>
   </g>
   <g id="line2d_21">
    <path d="M 79.66 277.321205 
L 1139.04 277.321205 
" clip-path="url(#p07a853e561)" style="fill: none; stroke-dasharray: 5.55,2.4; stroke-dashoffset: 0; stroke: #0000ff; stroke-width: 1.5"/>
   </g>
   <g id="patch_17">
    <path d="M 69.66 643.94 
L 69.66 61.496923 
" style="fill: none; stroke: #cccccc; stroke-width: 1.25; stroke-linejoin: miter; stroke-linecap: square"/>
   </g>
   <g id="patch_18">
    <path d="M 167.941667 653.94 
L 1050.758333 653.94 
" style="fill: none; stroke: #cccccc; stroke-width: 1.25; stroke-linejoin: miter; stroke-linecap: square"/>
   </g>
   <g id="text_16">
    <!-- 88.78 -->
    <g style="fill: #262626" transform="translate(52.135938 301.589667) scale(0.22 -0.22)">
     <defs>
      <path id="ArialMT-2e" d="M 581 0 
L 581 641 
L 1222 641 
L 1222 0 
L 581 0 
z
" transform="scale(0.015625)"/>
     </defs>
     <use xlink:href="#ArialMT-38"/>
     <use xlink:href="#ArialMT-38" x="55.615234"/>
     <use xlink:href="#ArialMT-2e" x="111.230469"/>
     <use xlink:href="#ArialMT-37" x="139.013672"/>
     <use xlink:href="#ArialMT-38" x="194.628906"/>
    </g>
   </g>
   <g id="text_17">
    <!-- 85.59 -->
    <g style="fill: #262626" transform="translate(52.135938 581.812738) scale(0.22 -0.22)">
     <use xlink:href="#ArialMT-38"/>
     <use xlink:href="#ArialMT-35" x="55.615234"/>
     <use xlink:href="#ArialMT-2e" x="111.230469"/>
     <use xlink:href="#ArialMT-35" x="139.013672"/>
     <use xlink:href="#ArialMT-39" x="194.628906"/>
    </g>
   </g>
   <g id="text_18">
    <!-- 88.68 -->
    <g style="fill: #262626" transform="translate(105.104937 233.775175) scale(0.22 -0.22)">
     <use xlink:href="#ArialMT-38"/>
     <use xlink:href="#ArialMT-38" x="55.615234"/>
     <use xlink:href="#ArialMT-2e" x="111.230469"/>
     <use xlink:href="#ArialMT-36" x="139.013672"/>
     <use xlink:href="#ArialMT-38" x="194.628906"/>
    </g>
    <!-- ± 0.30 -->
    <g style="fill: #262626" transform="translate(102.128062 257.0443) scale(0.22 -0.22)">
     <defs>
      <path id="ArialMT-b1" d="M 1491 813 
L 1491 2072 
L 244 2072 
L 244 2594 
L 1491 2594 
L 1491 3841 
L 2022 3841 
L 2022 2594 
L 3269 2594 
L 3269 2072 
L 2022 2072 
L 2022 813 
L 1491 813 
z
M 3269 0 
L 244 0 
L 244 525 
L 3269 525 
L 3269 0 
z
" transform="scale(0.015625)"/>
      <path id="ArialMT-20" transform="scale(0.015625)"/>
     </defs>
     <use xlink:href="#ArialMT-b1"/>
     <use xlink:href="#ArialMT-20" x="54.882812"/>
     <use xlink:href="#ArialMT-30" x="82.666016"/>
     <use xlink:href="#ArialMT-2e" x="138.28125"/>
     <use xlink:href="#ArialMT-33" x="166.064453"/>
     <use xlink:href="#ArialMT-30" x="221.679688"/>
    </g>
   </g>
   <g id="text_19">
    <!-- 88.36 -->
    <g style="fill: #262626" transform="translate(281.668271 270.576683) scale(0.22 -0.22)">
     <use xlink:href="#ArialMT-38"/>
     <use xlink:href="#ArialMT-38" x="55.615234"/>
     <use xlink:href="#ArialMT-2e" x="111.230469"/>
     <use xlink:href="#ArialMT-33" x="139.013672"/>
     <use xlink:href="#ArialMT-36" x="194.628906"/>
    </g>
    <!-- ± 0.25 -->
    <g style="fill: #262626" transform="translate(278.691396 293.845808) scale(0.22 -0.22)">
     <use xlink:href="#ArialMT-b1"/>
     <use xlink:href="#ArialMT-20" x="54.882812"/>
     <use xlink:href="#ArialMT-30" x="82.666016"/>
     <use xlink:href="#ArialMT-2e" x="138.28125"/>
     <use xlink:href="#ArialMT-32" x="166.064453"/>
     <use xlink:href="#ArialMT-35" x="221.679688"/>
    </g>
   </g>
   <g id="text_20">
    <!-- 87.68 -->
    <g style="fill: #262626" transform="translate(458.231604 322.409967) scale(0.22 -0.22)">
     <use xlink:href="#ArialMT-38"/>
     <use xlink:href="#ArialMT-37" x="55.615234"/>
     <use xlink:href="#ArialMT-2e" x="111.230469"/>
     <use xlink:href="#ArialMT-36" x="139.013672"/>
     <use xlink:href="#ArialMT-38" x="194.628906"/>
    </g>
    <!-- ± 0.39 -->
    <g style="fill: #262626" transform="translate(455.254729 345.679092) scale(0.22 -0.22)">
     <use xlink:href="#ArialMT-b1"/>
     <use xlink:href="#ArialMT-20" x="54.882812"/>
     <use xlink:href="#ArialMT-30" x="82.666016"/>
     <use xlink:href="#ArialMT-2e" x="138.28125"/>
     <use xlink:href="#ArialMT-33" x="166.064453"/>
     <use xlink:href="#ArialMT-39" x="221.679688"/>
    </g>
   </g>
   <g id="text_21">
    <!-- 87.18 -->
    <g style="fill: #262626" transform="translate(634.794937 367.284955) scale(0.22 -0.22)">
     <use xlink:href="#ArialMT-38"/>
     <use xlink:href="#ArialMT-37" x="55.615234"/>
     <use xlink:href="#ArialMT-2e" x="111.230469"/>
     <use xlink:href="#ArialMT-31" x="139.013672"/>
     <use xlink:href="#ArialMT-38" x="194.628906"/>
    </g>
    <!-- ± 0.43 -->
    <g style="fill: #262626" transform="translate(631.818062 390.55408) scale(0.22 -0.22)">
     <use xlink:href="#ArialMT-b1"/>
     <use xlink:href="#ArialMT-20" x="54.882812"/>
     <use xlink:href="#ArialMT-30" x="82.666016"/>
     <use xlink:href="#ArialMT-2e" x="138.28125"/>
     <use xlink:href="#ArialMT-34" x="166.064453"/>
     <use xlink:href="#ArialMT-33" x="221.679688"/>
    </g>
   </g>
   <g id="text_22">
    <!-- 87.23 -->
    <g style="fill: #262626" transform="translate(811.358271 362.825657) scale(0.22 -0.22)">
     <use xlink:href="#ArialMT-38"/>
     <use xlink:href="#ArialMT-37" x="55.615234"/>
     <use xlink:href="#ArialMT-2e" x="111.230469"/>
     <use xlink:href="#ArialMT-32" x="139.013672"/>
     <use xlink:href="#ArialMT-33" x="194.628906"/>
    </g>
    <!-- ± 0.42 -->
    <g style="fill: #262626" transform="translate(808.381396 386.094782) scale(0.22 -0.22)">
     <use xlink:href="#ArialMT-b1"/>
     <use xlink:href="#ArialMT-20" x="54.882812"/>
     <use xlink:href="#ArialMT-30" x="82.666016"/>
     <use xlink:href="#ArialMT-2e" x="138.28125"/>
     <use xlink:href="#ArialMT-34" x="166.064453"/>
     <use xlink:href="#ArialMT-32" x="221.679688"/>
    </g>
   </g>
   <g id="text_23">
    <!-- 87.06 -->
    <g style="fill: #262626" transform="translate(987.921604 382.555443) scale(0.22 -0.22)">
     <use xlink:href="#ArialMT-38"/>
     <use xlink:href="#ArialMT-37" x="55.615234"/>
     <use xlink:href="#ArialMT-2e" x="111.230469"/>
     <use xlink:href="#ArialMT-30" x="139.013672"/>
     <use xlink:href="#ArialMT-36" x="194.628906"/>
    </g>
    <!-- ± 0.40 -->
    <g style="fill: #262626" transform="translate(984.944729 405.824568) scale(0.22 -0.22)">
     <use xlink:href="#ArialMT-b1"/>
     <use xlink:href="#ArialMT-20" x="54.882812"/>
     <use xlink:href="#ArialMT-30" x="82.666016"/>
     <use xlink:href="#ArialMT-2e" x="138.28125"/>
     <use xlink:href="#ArialMT-34" x="166.064453"/>
     <use xlink:href="#ArialMT-30" x="221.679688"/>
    </g>
   </g>
   <g id="text_24">
    <!-- 89.31 -->
    <g style="fill: #262626" transform="translate(175.730271 180.723875) scale(0.22 -0.22)">
     <use xlink:href="#ArialMT-38"/>
     <use xlink:href="#ArialMT-39" x="55.615234"/>
     <use xlink:href="#ArialMT-2e" x="111.230469"/>
     <use xlink:href="#ArialMT-33" x="139.013672"/>
     <use xlink:href="#ArialMT-31" x="194.628906"/>
    </g>
    <!-- ± 0.22 -->
    <g style="fill: #262626" transform="translate(172.753396 203.993) scale(0.22 -0.22)">
     <use xlink:href="#ArialMT-b1"/>
     <use xlink:href="#ArialMT-20" x="54.882812"/>
     <use xlink:href="#ArialMT-30" x="82.666016"/>
     <use xlink:href="#ArialMT-2e" x="138.28125"/>
     <use xlink:href="#ArialMT-32" x="166.064453"/>
     <use xlink:href="#ArialMT-32" x="221.679688"/>
    </g>
   </g>
   <g id="text_25">
    <!-- 89.30 -->
    <g style="fill: #262626" transform="translate(352.293604 188.763401) scale(0.22 -0.22)">
     <use xlink:href="#ArialMT-38"/>
     <use xlink:href="#ArialMT-39" x="55.615234"/>
     <use xlink:href="#ArialMT-2e" x="111.230469"/>
     <use xlink:href="#ArialMT-33" x="139.013672"/>
     <use xlink:href="#ArialMT-30" x="194.628906"/>
    </g>
    <!-- ± 0.15 -->
    <g style="fill: #262626" transform="translate(349.316729 212.032526) scale(0.22 -0.22)">
     <use xlink:href="#ArialMT-b1"/>
     <use xlink:href="#ArialMT-20" x="54.882812"/>
     <use xlink:href="#ArialMT-30" x="82.666016"/>
     <use xlink:href="#ArialMT-2e" x="138.28125"/>
     <use xlink:href="#ArialMT-31" x="166.064453"/>
     <use xlink:href="#ArialMT-35" x="221.679688"/>
    </g>
   </g>
   <g id="text_26">
    <!-- 89.44 -->
    <g style="fill: #262626" transform="translate(528.856937 175.814124) scale(0.22 -0.22)">
     <use xlink:href="#ArialMT-38"/>
     <use xlink:href="#ArialMT-39" x="55.615234"/>
     <use xlink:href="#ArialMT-2e" x="111.230469"/>
     <use xlink:href="#ArialMT-34" x="139.013672"/>
     <use xlink:href="#ArialMT-34" x="194.628906"/>
    </g>
    <!-- ± 0.15 -->
    <g style="fill: #262626" transform="translate(525.880063 199.083249) scale(0.22 -0.22)">
     <use xlink:href="#ArialMT-b1"/>
     <use xlink:href="#ArialMT-20" x="54.882812"/>
     <use xlink:href="#ArialMT-30" x="82.666016"/>
     <use xlink:href="#ArialMT-2e" x="138.28125"/>
     <use xlink:href="#ArialMT-31" x="166.064453"/>
     <use xlink:href="#ArialMT-35" x="221.679688"/>
    </g>
   </g>
   <g id="text_27">
    <!-- 89.51 -->
    <g style="fill: #262626" transform="translate(705.420271 165.715866) scale(0.22 -0.22)">
     <use xlink:href="#ArialMT-38"/>
     <use xlink:href="#ArialMT-39" x="55.615234"/>
     <use xlink:href="#ArialMT-2e" x="111.230469"/>
     <use xlink:href="#ArialMT-35" x="139.013672"/>
     <use xlink:href="#ArialMT-31" x="194.628906"/>
    </g>
    <!-- ± 0.17 -->
    <g style="fill: #262626" transform="translate(702.443396 188.984991) scale(0.22 -0.22)">
     <use xlink:href="#ArialMT-b1"/>
     <use xlink:href="#ArialMT-20" x="54.882812"/>
     <use xlink:href="#ArialMT-30" x="82.666016"/>
     <use xlink:href="#ArialMT-2e" x="138.28125"/>
     <use xlink:href="#ArialMT-31" x="166.064453"/>
     <use xlink:href="#ArialMT-37" x="221.679688"/>
    </g>
   </g>
   <g id="text_28">
    <!-- 89.60 -->
    <g style="fill: #262626" transform="translate(881.983604 155.972661) scale(0.22 -0.22)">
     <use xlink:href="#ArialMT-38"/>
     <use xlink:href="#ArialMT-39" x="55.615234"/>
     <use xlink:href="#ArialMT-2e" x="111.230469"/>
     <use xlink:href="#ArialMT-36" x="139.013672"/>
     <use xlink:href="#ArialMT-30" x="194.628906"/>
    </g>
    <!-- ± 0.18 -->
    <g style="fill: #262626" transform="translate(879.006729 179.241786) scale(0.22 -0.22)">
     <use xlink:href="#ArialMT-b1"/>
     <use xlink:href="#ArialMT-20" x="54.882812"/>
     <use xlink:href="#ArialMT-30" x="82.666016"/>
     <use xlink:href="#ArialMT-2e" x="138.28125"/>
     <use xlink:href="#ArialMT-31" x="166.064453"/>
     <use xlink:href="#ArialMT-38" x="221.679688"/>
    </g>
   </g>
   <g id="text_29">
    <!-- 89.77 -->
    <g style="fill: #262626" transform="translate(1058.546938 142.458257) scale(0.22 -0.22)">
     <use xlink:href="#ArialMT-38"/>
     <use xlink:href="#ArialMT-39" x="55.615234"/>
     <use xlink:href="#ArialMT-2e" x="111.230469"/>
     <use xlink:href="#ArialMT-37" x="139.013672"/>
     <use xlink:href="#ArialMT-37" x="194.628906"/>
    </g>
    <!-- ± 0.15 -->
    <g style="fill: #262626" transform="translate(1055.570062 165.727382) scale(0.22 -0.22)">
     <use xlink:href="#ArialMT-b1"/>
     <use xlink:href="#ArialMT-20" x="54.882812"/>
     <use xlink:href="#ArialMT-30" x="82.666016"/>
     <use xlink:href="#ArialMT-2e" x="138.28125"/>
     <use xlink:href="#ArialMT-31" x="166.064453"/>
     <use xlink:href="#ArialMT-35" x="221.679688"/>
    </g>
   </g>
   <g id="legend_1">
    <g id="patch_19">
     <path d="M 446.745 101.205 
L 1122.24 101.205 
Q 1127.04 101.205 1127.04 96.405 
L 1127.04 29.76 
Q 1127.04 24.96 1122.24 24.96 
L 446.745 24.96 
Q 441.945 24.96 441.945 29.76 
L 441.945 96.405 
Q 441.945 101.205 446.745 101.205 
z
" style="fill: #ffffff; opacity: 0.8; stroke: #cccccc; stroke-linejoin: miter"/>
    </g>
    <g id="patch_20">
     <path d="M 451.545 52.03125 
L 499.545 52.03125 
L 499.545 35.23125 
L 451.545 35.23125 
z
" style="fill: #58a141; stroke: #ffffff; stroke-linejoin: miter"/>
    </g>
    <g id="text_30">
     <!-- M2D-X (η=0.0) -->
     <g style="fill: #262626" transform="translate(518.745 52.03125) scale(0.24 -0.24)">
      <defs>
       <path id="ArialMT-4d" d="M 475 0 
L 475 4581 
L 1388 4581 
L 2472 1338 
Q 2622 884 2691 659 
Q 2769 909 2934 1394 
L 4031 4581 
L 4847 4581 
L 4847 0 
L 4263 0 
L 4263 3834 
L 2931 0 
L 2384 0 
L 1059 3900 
L 1059 0 
L 475 0 
z
" transform="scale(0.015625)"/>
       <path id="ArialMT-44" d="M 494 0 
L 494 4581 
L 2072 4581 
Q 2606 4581 2888 4516 
Q 3281 4425 3559 4188 
Q 3922 3881 4101 3404 
Q 4281 2928 4281 2316 
Q 4281 1794 4159 1391 
Q 4038 988 3847 723 
Q 3656 459 3429 307 
Q 3203 156 2883 78 
Q 2563 0 2147 0 
L 494 0 
z
M 1100 541 
L 2078 541 
Q 2531 541 2789 625 
Q 3047 709 3200 863 
Q 3416 1078 3536 1442 
Q 3656 1806 3656 2325 
Q 3656 3044 3420 3430 
Q 3184 3816 2847 3947 
Q 2603 4041 2063 4041 
L 1100 4041 
L 1100 541 
z
" transform="scale(0.015625)"/>
       <path id="ArialMT-2d" d="M 203 1375 
L 203 1941 
L 1931 1941 
L 1931 1375 
L 203 1375 
z
" transform="scale(0.015625)"/>
       <path id="ArialMT-58" d="M 28 0 
L 1800 2388 
L 238 4581 
L 959 4581 
L 1791 3406 
Q 2050 3041 2159 2844 
Q 2313 3094 2522 3366 
L 3444 4581 
L 4103 4581 
L 2494 2422 
L 4228 0 
L 3478 0 
L 2325 1634 
Q 2228 1775 2125 1941 
Q 1972 1691 1906 1597 
L 756 0 
L 28 0 
z
" transform="scale(0.015625)"/>
       <path id="ArialMT-28" d="M 1497 -1347 
Q 1031 -759 709 28 
Q 388 816 388 1659 
Q 388 2403 628 3084 
Q 909 3875 1497 4659 
L 1900 4659 
Q 1522 4009 1400 3731 
Q 1209 3300 1100 2831 
Q 966 2247 966 1656 
Q 966 153 1900 -1347 
L 1497 -1347 
z
" transform="scale(0.015625)"/>
       <path id="ArialMT-3b7" d="M 434 0 
L 434 3319 
L 941 3319 
L 941 2847 
Q 1306 3394 1997 3394 
Q 2403 3394 2678 3219 
Q 2953 3044 3042 2786 
Q 3131 2528 3131 2041 
L 3131 -1272 
L 2569 -1272 
L 2569 2019 
Q 2569 2481 2406 2693 
Q 2244 2906 1872 2906 
Q 1506 2906 1251 2672 
Q 997 2438 997 1813 
L 997 0 
L 434 0 
z
" transform="scale(0.015625)"/>
       <path id="ArialMT-3d" d="M 3381 2694 
L 356 2694 
L 356 3219 
L 3381 3219 
L 3381 2694 
z
M 3381 1303 
L 356 1303 
L 356 1828 
L 3381 1828 
L 3381 1303 
z
" transform="scale(0.015625)"/>
       <path id="ArialMT-29" d="M 791 -1347 
L 388 -1347 
Q 1322 153 1322 1656 
Q 1322 2244 1188 2822 
Q 1081 3291 891 3722 
Q 769 4003 388 4659 
L 791 4659 
Q 1378 3875 1659 3084 
Q 1900 2403 1900 1659 
Q 1900 816 1576 28 
Q 1253 -759 791 -1347 
z
" transform="scale(0.015625)"/>
      </defs>
      <use xlink:href="#ArialMT-4d"/>
      <use xlink:href="#ArialMT-32" x="83.300781"/>
      <use xlink:href="#ArialMT-44" x="138.916016"/>
      <use xlink:href="#ArialMT-2d" x="211.132812"/>
      <use xlink:href="#ArialMT-58" x="244.433594"/>
      <use xlink:href="#ArialMT-20" x="311.132812"/>
      <use xlink:href="#ArialMT-28" x="338.916016"/>
      <use xlink:href="#ArialMT-3b7" x="372.216797"/>
      <use xlink:href="#ArialMT-3d" x="427.832031"/>
      <use xlink:href="#ArialMT-30" x="486.230469"/>
      <use xlink:href="#ArialMT-2e" x="541.845703"/>
      <use xlink:href="#ArialMT-30" x="569.628906"/>
      <use xlink:href="#ArialMT-29" x="625.244141"/>
     </g>
    </g>
    <g id="patch_21">
     <path d="M 451.545 86.55375 
L 499.545 86.55375 
L 499.545 69.75375 
L 451.545 69.75375 
z
" style="fill: #459e97; stroke: #ffffff; stroke-linejoin: miter"/>
    </g>
    <g id="text_31">
     <!-- M2D-X (η=0.01) -->
     <g style="fill: #262626" transform="translate(518.745 86.55375) scale(0.24 -0.24)">
      <use xlink:href="#ArialMT-4d"/>
      <use xlink:href="#ArialMT-32" x="83.300781"/>
      <use xlink:href="#ArialMT-44" x="138.916016"/>
      <use xlink:href="#ArialMT-2d" x="211.132812"/>
      <use xlink:href="#ArialMT-58" x="244.433594"/>
      <use xlink:href="#ArialMT-20" x="311.132812"/>
      <use xlink:href="#ArialMT-28" x="338.916016"/>
      <use xlink:href="#ArialMT-3b7" x="372.216797"/>
      <use xlink:href="#ArialMT-3d" x="427.832031"/>
      <use xlink:href="#ArialMT-30" x="486.230469"/>
      <use xlink:href="#ArialMT-2e" x="541.845703"/>
      <use xlink:href="#ArialMT-30" x="569.628906"/>
      <use xlink:href="#ArialMT-31" x="625.244141"/>
      <use xlink:href="#ArialMT-29" x="680.859375"/>
     </g>
    </g>
    <g id="line2d_22">
     <path d="M 738.135 43.63125 
L 762.135 43.63125 
L 786.135 43.63125 
" style="fill: none; stroke: #ff0000; stroke-width: 1.5; stroke-linecap: round"/>
    </g>
    <g id="text_32">
     <!-- 85.59: Moummad et al. (Ref.) -->
     <g style="fill: #262626" transform="translate(805.335 52.03125) scale(0.24 -0.24)">
      <defs>
       <path id="ArialMT-3a" d="M 578 2678 
L 578 3319 
L 1219 3319 
L 1219 2678 
L 578 2678 
z
M 578 0 
L 578 641 
L 1219 641 
L 1219 0 
L 578 0 
z
" transform="scale(0.015625)"/>
       <path id="ArialMT-75" d="M 2597 0 
L 2597 488 
Q 2209 -75 1544 -75 
Q 1250 -75 995 37 
Q 741 150 617 320 
Q 494 491 444 738 
Q 409 903 409 1263 
L 409 3319 
L 972 3319 
L 972 1478 
Q 972 1038 1006 884 
Q 1059 663 1231 536 
Q 1403 409 1656 409 
Q 1909 409 2131 539 
Q 2353 669 2445 892 
Q 2538 1116 2538 1541 
L 2538 3319 
L 3100 3319 
L 3100 0 
L 2597 0 
z
" transform="scale(0.015625)"/>
       <path id="ArialMT-6d" d="M 422 0 
L 422 3319 
L 925 3319 
L 925 2853 
Q 1081 3097 1340 3245 
Q 1600 3394 1931 3394 
Q 2300 3394 2536 3241 
Q 2772 3088 2869 2813 
Q 3263 3394 3894 3394 
Q 4388 3394 4653 3120 
Q 4919 2847 4919 2278 
L 4919 0 
L 4359 0 
L 4359 2091 
Q 4359 2428 4304 2576 
Q 4250 2725 4106 2815 
Q 3963 2906 3769 2906 
Q 3419 2906 3187 2673 
Q 2956 2441 2956 1928 
L 2956 0 
L 2394 0 
L 2394 2156 
Q 2394 2531 2256 2718 
Q 2119 2906 1806 2906 
Q 1569 2906 1367 2781 
Q 1166 2656 1075 2415 
Q 984 2175 984 1722 
L 984 0 
L 422 0 
z
" transform="scale(0.015625)"/>
       <path id="ArialMT-61" d="M 2588 409 
Q 2275 144 1986 34 
Q 1697 -75 1366 -75 
Q 819 -75 525 192 
Q 231 459 231 875 
Q 231 1119 342 1320 
Q 453 1522 633 1644 
Q 813 1766 1038 1828 
Q 1203 1872 1538 1913 
Q 2219 1994 2541 2106 
Q 2544 2222 2544 2253 
Q 2544 2597 2384 2738 
Q 2169 2928 1744 2928 
Q 1347 2928 1158 2789 
Q 969 2650 878 2297 
L 328 2372 
Q 403 2725 575 2942 
Q 747 3159 1072 3276 
Q 1397 3394 1825 3394 
Q 2250 3394 2515 3294 
Q 2781 3194 2906 3042 
Q 3031 2891 3081 2659 
Q 3109 2516 3109 2141 
L 3109 1391 
Q 3109 606 3145 398 
Q 3181 191 3288 0 
L 2700 0 
Q 2613 175 2588 409 
z
M 2541 1666 
Q 2234 1541 1622 1453 
Q 1275 1403 1131 1340 
Q 988 1278 909 1158 
Q 831 1038 831 891 
Q 831 666 1001 516 
Q 1172 366 1500 366 
Q 1825 366 2078 508 
Q 2331 650 2450 897 
Q 2541 1088 2541 1459 
L 2541 1666 
z
" transform="scale(0.015625)"/>
       <path id="ArialMT-64" d="M 2575 0 
L 2575 419 
Q 2259 -75 1647 -75 
Q 1250 -75 917 144 
Q 584 363 401 755 
Q 219 1147 219 1656 
Q 219 2153 384 2558 
Q 550 2963 881 3178 
Q 1213 3394 1622 3394 
Q 1922 3394 2156 3267 
Q 2391 3141 2538 2938 
L 2538 4581 
L 3097 4581 
L 3097 0 
L 2575 0 
z
M 797 1656 
Q 797 1019 1065 703 
Q 1334 388 1700 388 
Q 2069 388 2326 689 
Q 2584 991 2584 1609 
Q 2584 2291 2321 2609 
Q 2059 2928 1675 2928 
Q 1300 2928 1048 2622 
Q 797 2316 797 1656 
z
" transform="scale(0.015625)"/>
       <path id="ArialMT-74" d="M 1650 503 
L 1731 6 
Q 1494 -44 1306 -44 
Q 1000 -44 831 53 
Q 663 150 594 308 
Q 525 466 525 972 
L 525 2881 
L 113 2881 
L 113 3319 
L 525 3319 
L 525 4141 
L 1084 4478 
L 1084 3319 
L 1650 3319 
L 1650 2881 
L 1084 2881 
L 1084 941 
Q 1084 700 1114 631 
Q 1144 563 1211 522 
Q 1278 481 1403 481 
Q 1497 481 1650 503 
z
" transform="scale(0.015625)"/>
       <path id="ArialMT-6c" d="M 409 0 
L 409 4581 
L 972 4581 
L 972 0 
L 409 0 
z
" transform="scale(0.015625)"/>
       <path id="ArialMT-52" d="M 503 0 
L 503 4581 
L 2534 4581 
Q 3147 4581 3465 4457 
Q 3784 4334 3975 4021 
Q 4166 3709 4166 3331 
Q 4166 2844 3850 2509 
Q 3534 2175 2875 2084 
Q 3116 1969 3241 1856 
Q 3506 1613 3744 1247 
L 4541 0 
L 3778 0 
L 3172 953 
Q 2906 1366 2734 1584 
Q 2563 1803 2427 1890 
Q 2291 1978 2150 2013 
Q 2047 2034 1813 2034 
L 1109 2034 
L 1109 0 
L 503 0 
z
M 1109 2559 
L 2413 2559 
Q 2828 2559 3062 2645 
Q 3297 2731 3419 2920 
Q 3541 3109 3541 3331 
Q 3541 3656 3305 3865 
Q 3069 4075 2559 4075 
L 1109 4075 
L 1109 2559 
z
" transform="scale(0.015625)"/>
       <path id="ArialMT-66" d="M 556 0 
L 556 2881 
L 59 2881 
L 59 3319 
L 556 3319 
L 556 3672 
Q 556 4006 616 4169 
Q 697 4388 901 4523 
Q 1106 4659 1475 4659 
Q 1713 4659 2000 4603 
L 1916 4113 
Q 1741 4144 1584 4144 
Q 1328 4144 1222 4034 
Q 1116 3925 1116 3625 
L 1116 3319 
L 1763 3319 
L 1763 2881 
L 1116 2881 
L 1116 0 
L 556 0 
z
" transform="scale(0.015625)"/>
      </defs>
      <use xlink:href="#ArialMT-38"/>
      <use xlink:href="#ArialMT-35" x="55.615234"/>
      <use xlink:href="#ArialMT-2e" x="111.230469"/>
      <use xlink:href="#ArialMT-35" x="139.013672"/>
      <use xlink:href="#ArialMT-39" x="194.628906"/>
      <use xlink:href="#ArialMT-3a" x="250.244141"/>
      <use xlink:href="#ArialMT-20" x="278.027344"/>
      <use xlink:href="#ArialMT-4d" x="305.810547"/>
      <use xlink:href="#ArialMT-6f" x="389.111328"/>
      <use xlink:href="#ArialMT-75" x="444.726562"/>
      <use xlink:href="#ArialMT-6d" x="500.341797"/>
      <use xlink:href="#ArialMT-6d" x="583.642578"/>
      <use xlink:href="#ArialMT-61" x="666.943359"/>
      <use xlink:href="#ArialMT-64" x="722.558594"/>
      <use xlink:href="#ArialMT-20" x="778.173828"/>
      <use xlink:href="#ArialMT-65" x="805.957031"/>
      <use xlink:href="#ArialMT-74" x="861.572266"/>
      <use xlink:href="#ArialMT-20" x="889.355469"/>
      <use xlink:href="#ArialMT-61" x="917.138672"/>
      <use xlink:href="#ArialMT-6c" x="972.753906"/>
      <use xlink:href="#ArialMT-2e" x="994.970703"/>
      <use xlink:href="#ArialMT-20" x="1022.753906"/>
      <use xlink:href="#ArialMT-28" x="1050.537109"/>
      <use xlink:href="#ArialMT-52" x="1083.837891"/>
      <use xlink:href="#ArialMT-65" x="1156.054688"/>
      <use xlink:href="#ArialMT-66" x="1211.669922"/>
      <use xlink:href="#ArialMT-2e" x="1239.453125"/>
      <use xlink:href="#ArialMT-29" x="1267.236328"/>
     </g>
    </g>
    <g id="line2d_23">
     <path d="M 738.135 78.15375 
L 762.135 78.15375 
L 786.135 78.15375 
" style="fill: none; stroke-dasharray: 5.55,2.4; stroke-dashoffset: 0; stroke: #0000ff; stroke-width: 1.5"/>
    </g>
    <g id="text_33">
     <!-- 88.78: M2D (Ref., AS only) -->
     <g style="fill: #262626" transform="translate(805.335 86.55375) scale(0.24 -0.24)">
      <defs>
       <path id="ArialMT-2c" d="M 569 0 
L 569 641 
L 1209 641 
L 1209 0 
Q 1209 -353 1084 -570 
Q 959 -788 688 -906 
L 531 -666 
Q 709 -588 793 -436 
Q 878 -284 888 0 
L 569 0 
z
" transform="scale(0.015625)"/>
       <path id="ArialMT-41" d="M -9 0 
L 1750 4581 
L 2403 4581 
L 4278 0 
L 3588 0 
L 3053 1388 
L 1138 1388 
L 634 0 
L -9 0 
z
M 1313 1881 
L 2866 1881 
L 2388 3150 
Q 2169 3728 2063 4100 
Q 1975 3659 1816 3225 
L 1313 1881 
z
" transform="scale(0.015625)"/>
       <path id="ArialMT-6e" d="M 422 0 
L 422 3319 
L 928 3319 
L 928 2847 
Q 1294 3394 1984 3394 
Q 2284 3394 2536 3286 
Q 2788 3178 2913 3003 
Q 3038 2828 3088 2588 
Q 3119 2431 3119 2041 
L 3119 0 
L 2556 0 
L 2556 2019 
Q 2556 2363 2490 2533 
Q 2425 2703 2258 2804 
Q 2091 2906 1866 2906 
Q 1506 2906 1245 2678 
Q 984 2450 984 1813 
L 984 0 
L 422 0 
z
" transform="scale(0.015625)"/>
       <path id="ArialMT-79" d="M 397 -1278 
L 334 -750 
Q 519 -800 656 -800 
Q 844 -800 956 -737 
Q 1069 -675 1141 -563 
Q 1194 -478 1313 -144 
Q 1328 -97 1363 -6 
L 103 3319 
L 709 3319 
L 1400 1397 
Q 1534 1031 1641 628 
Q 1738 1016 1872 1384 
L 2581 3319 
L 3144 3319 
L 1881 -56 
Q 1678 -603 1566 -809 
Q 1416 -1088 1222 -1217 
Q 1028 -1347 759 -1347 
Q 597 -1347 397 -1278 
z
" transform="scale(0.015625)"/>
      </defs>
      <use xlink:href="#ArialMT-38"/>
      <use xlink:href="#ArialMT-38" x="55.615234"/>
      <use xlink:href="#ArialMT-2e" x="111.230469"/>
      <use xlink:href="#ArialMT-37" x="139.013672"/>
      <use xlink:href="#ArialMT-38" x="194.628906"/>
      <use xlink:href="#ArialMT-3a" x="250.244141"/>
      <use xlink:href="#ArialMT-20" x="278.027344"/>
      <use xlink:href="#ArialMT-4d" x="305.810547"/>
      <use xlink:href="#ArialMT-32" x="389.111328"/>
      <use xlink:href="#ArialMT-44" x="444.726562"/>
      <use xlink:href="#ArialMT-20" x="516.943359"/>
      <use xlink:href="#ArialMT-28" x="544.726562"/>
      <use xlink:href="#ArialMT-52" x="578.027344"/>
      <use xlink:href="#ArialMT-65" x="650.244141"/>
      <use xlink:href="#ArialMT-66" x="705.859375"/>
      <use xlink:href="#ArialMT-2e" x="733.642578"/>
      <use xlink:href="#ArialMT-2c" x="761.425781"/>
      <use xlink:href="#ArialMT-20" x="789.208984"/>
      <use xlink:href="#ArialMT-41" x="811.492188"/>
      <use xlink:href="#ArialMT-53" x="878.191406"/>
      <use xlink:href="#ArialMT-20" x="944.890625"/>
      <use xlink:href="#ArialMT-6f" x="972.673828"/>
      <use xlink:href="#ArialMT-6e" x="1028.289062"/>
      <use xlink:href="#ArialMT-6c" x="1083.904297"/>
      <use xlink:href="#ArialMT-79" x="1106.121094"/>
      <use xlink:href="#ArialMT-29" x="1156.121094"/>
     </g>
    </g>
   </g>
  </g>
 </g>
 <defs>
  <clipPath id="p07a853e561">
   <rect x="79.66" y="12.96" width="1059.38" height="630.98"/>
  </clipPath>
 </defs>
</svg>
